<?xml version="1.0" encoding="UTF-8" standalone="no"?>
<!DOCTYPE svg PUBLIC "-//W3C//DTD SVG 1.1//EN"
 "http://www.w3.org/Graphics/SVG/1.1/DTD/svg11.dtd">
<!-- Generated by graphviz version 2.47.0 (20210316.0004)
 -->
<!-- Title: dependencies Pages: 1 -->
<svg width="504pt" height="211pt"
 viewBox="0.00 0.00 504.00 211.00" xmlns="http://www.w3.org/2000/svg" xmlns:xlink="http://www.w3.org/1999/xlink">
<g id="graph0" class="graph" transform="scale(1 1) rotate(0) translate(4 207)">
<title>dependencies</title>
<polygon fill="white" stroke="transparent" points="-4,4 -4,-207 500,-207 500,4 -4,4"/>
<text text-anchor="start" x="227.01" y="-42.4" font-family="Times-12" font-weight="bold" font-size="14.00">Legend</text>
<polygon fill="#ffffb3" stroke="transparent" points="14,-10 14,-30 34,-30 34,-10 14,-10"/>
<text text-anchor="start" x="37.63" y="-15.4" font-family="Times-12" font-size="14.00"> &#160;Declarations</text>
<polygon fill="#8dd3c7" stroke="transparent" points="127,-10 127,-30 147,-30 147,-10 127,-10"/>
<text text-anchor="start" x="150.73" y="-15.4" font-family="Times-12" font-size="14.00"> &#160;Module</text>
<polygon fill="#80b1d3" stroke="transparent" points="213,-10 213,-30 233,-30 233,-10 213,-10"/>
<text text-anchor="start" x="236.78" y="-15.4" font-family="Times-12" font-size="14.00"> &#160;Bootstrap</text>
<polygon fill="#fdb462" stroke="transparent" points="310,-10 310,-30 330,-30 330,-10 310,-10"/>
<text text-anchor="start" x="333.67" y="-15.4" font-family="Times-12" font-size="14.00"> &#160;Providers</text>
<polygon fill="#fb8072" stroke="transparent" points="406,-10 406,-30 426,-30 426,-10 406,-10"/>
<text text-anchor="start" x="429.73" y="-15.4" font-family="Times-12" font-size="14.00"> &#160;Exports</text>
<g id="clust1" class="cluster">
<title>cluster_AppModule</title>
<polygon fill="none" stroke="black" stroke-dasharray="1,5" points="127.5,-70 127.5,-195 368.5,-195 368.5,-70 127.5,-70"/>
</g>
<g id="clust3" class="cluster">
<title>cluster_AppModule_imports</title>
<polygon fill="none" stroke="black" points="135.5,-78 135.5,-130 360.5,-130 360.5,-78 135.5,-78"/>
</g>
<!-- AuthModule -->
<g id="node1" class="node">
<title>AuthModule</title>
<polygon fill="#8dd3c7" stroke="black" points="352.05,-122 349.05,-126 328.05,-126 325.05,-122 264.95,-122 264.95,-86 352.05,-86 352.05,-122"/>
<text text-anchor="middle" x="308.5" y="-99.8" font-family="Times,serif" font-size="14.00">AuthModule</text>
</g>
<!-- AppModule -->
<g id="node3" class="node">
<title>AppModule</title>
<polygon fill="#8dd3c7" stroke="black" points="293.16,-187 290.16,-191 269.16,-191 266.16,-187 209.84,-187 209.84,-151 293.16,-151 293.16,-187"/>
<text text-anchor="middle" x="251.5" y="-164.8" font-family="Times,serif" font-size="14.00">AppModule</text>
</g>
<!-- AuthModule&#45;&gt;AppModule -->
<g id="edge1" class="edge">
<title>AuthModule&#45;&gt;AppModule</title>
<path fill="none" stroke="black" d="M279.03,-122.11C279.03,-122.11 279.03,-140.99 279.03,-140.99"/>
<polygon fill="black" stroke="black" points="275.53,-140.99 279.03,-150.99 282.53,-140.99 275.53,-140.99"/>
</g>
<!-- GestionModule -->
<g id="node2" class="node">
<title>GestionModule</title>
<polygon fill="#8dd3c7" stroke="black" points="247.1,-122 244.1,-126 223.1,-126 220.1,-122 143.9,-122 143.9,-86 247.1,-86 247.1,-122"/>
<text text-anchor="middle" x="195.5" y="-99.8" font-family="Times,serif" font-size="14.00">GestionModule</text>
</g>
<!-- GestionModule&#45;&gt;AppModule -->
<g id="edge2" class="edge">
<title>GestionModule&#45;&gt;AppModule</title>
<path fill="none" stroke="black" d="M228.36,-122.11C228.36,-122.11 228.36,-140.99 228.36,-140.99"/>
<polygon fill="black" stroke="black" points="224.86,-140.99 228.36,-150.99 231.86,-140.99 224.86,-140.99"/>
</g>
</g>
</svg>
