<?xml version="1.0" encoding="UTF-8" standalone="no"?>
<!DOCTYPE svg PUBLIC "-//W3C//DTD SVG 1.1//EN"
 "http://www.w3.org/Graphics/SVG/1.1/DTD/svg11.dtd">
<!-- Generated by graphviz version 2.47.0 (20210316.0004)
 -->
<!-- Title: dependencies Pages: 1 -->
<svg width="1090pt" height="284pt"
 viewBox="0.00 0.00 1090.00 284.00" xmlns="http://www.w3.org/2000/svg" xmlns:xlink="http://www.w3.org/1999/xlink">
<g id="graph0" class="graph" transform="scale(1 1) rotate(0) translate(4 280)">
<title>dependencies</title>
<polygon fill="white" stroke="transparent" points="-4,4 -4,-280 1086,-280 1086,4 -4,4"/>
<text text-anchor="start" x="520.01" y="-42.4" font-family="Times-12" font-weight="bold" font-size="14.00">Legend</text>
<polygon fill="#ffffb3" stroke="transparent" points="307,-10 307,-30 327,-30 327,-10 307,-10"/>
<text text-anchor="start" x="330.63" y="-15.4" font-family="Times-12" font-size="14.00"> &#160;Declarations</text>
<polygon fill="#8dd3c7" stroke="transparent" points="420,-10 420,-30 440,-30 440,-10 420,-10"/>
<text text-anchor="start" x="443.73" y="-15.4" font-family="Times-12" font-size="14.00"> &#160;Module</text>
<polygon fill="#80b1d3" stroke="transparent" points="506,-10 506,-30 526,-30 526,-10 506,-10"/>
<text text-anchor="start" x="529.78" y="-15.4" font-family="Times-12" font-size="14.00"> &#160;Bootstrap</text>
<polygon fill="#fdb462" stroke="transparent" points="603,-10 603,-30 623,-30 623,-10 603,-10"/>
<text text-anchor="start" x="626.67" y="-15.4" font-family="Times-12" font-size="14.00"> &#160;Providers</text>
<polygon fill="#fb8072" stroke="transparent" points="699,-10 699,-30 719,-30 719,-10 699,-10"/>
<text text-anchor="start" x="722.73" y="-15.4" font-family="Times-12" font-size="14.00"> &#160;Exports</text>
<g id="clust1" class="cluster">
<title>cluster_AppModule</title>
<polygon fill="none" stroke="black" stroke-dasharray="1,5" points="8,-70 8,-195 249,-195 249,-70 8,-70"/>
</g>
<g id="clust3" class="cluster">
<title>cluster_AppModule_imports</title>
<polygon fill="none" stroke="black" points="16,-78 16,-130 241,-130 241,-78 16,-78"/>
</g>
<g id="clust19" class="cluster">
<title>cluster_TemplatePlaygroundModule</title>
<polygon fill="none" stroke="black" stroke-dasharray="1,5" points="257,-70 257,-268 1074,-268 1074,-70 257,-70"/>
</g>
<g id="clust20" class="cluster">
<title>cluster_TemplatePlaygroundModule_declarations</title>
<polygon fill="none" stroke="black" points="852,-78 852,-130 1066,-130 1066,-78 852,-78"/>
</g>
<g id="clust24" class="cluster">
<title>cluster_TemplatePlaygroundModule_bootstrap</title>
<polygon fill="none" stroke="black" points="543,-208 543,-260 761,-260 761,-208 543,-208"/>
</g>
<g id="clust25" class="cluster">
<title>cluster_TemplatePlaygroundModule_providers</title>
<polygon fill="none" stroke="black" points="265,-78 265,-130 844,-130 844,-78 265,-78"/>
</g>
<!-- AuthModule -->
<g id="node1" class="node">
<title>AuthModule</title>
<polygon fill="#8dd3c7" stroke="black" points="232.55,-122 229.55,-126 208.55,-126 205.55,-122 145.45,-122 145.45,-86 232.55,-86 232.55,-122"/>
<text text-anchor="middle" x="189" y="-99.8" font-family="Times,serif" font-size="14.00">AuthModule</text>
</g>
<!-- AppModule -->
<g id="node3" class="node">
<title>AppModule</title>
<polygon fill="#8dd3c7" stroke="black" points="173.66,-187 170.66,-191 149.66,-191 146.66,-187 90.34,-187 90.34,-151 173.66,-151 173.66,-187"/>
<text text-anchor="middle" x="132" y="-164.8" font-family="Times,serif" font-size="14.00">AppModule</text>
</g>
<!-- AuthModule&#45;&gt;AppModule -->
<g id="edge1" class="edge">
<title>AuthModule&#45;&gt;AppModule</title>
<path fill="none" stroke="black" d="M159.53,-122.11C159.53,-122.11 159.53,-140.99 159.53,-140.99"/>
<polygon fill="black" stroke="black" points="156.03,-140.99 159.53,-150.99 163.03,-140.99 156.03,-140.99"/>
</g>
<!-- GestionModule -->
<g id="node2" class="node">
<title>GestionModule</title>
<polygon fill="#8dd3c7" stroke="black" points="127.6,-122 124.6,-126 103.6,-126 100.6,-122 24.4,-122 24.4,-86 127.6,-86 127.6,-122"/>
<text text-anchor="middle" x="76" y="-99.8" font-family="Times,serif" font-size="14.00">GestionModule</text>
</g>
<!-- GestionModule&#45;&gt;AppModule -->
<g id="edge2" class="edge">
<title>GestionModule&#45;&gt;AppModule</title>
<path fill="none" stroke="black" d="M108.86,-122.11C108.86,-122.11 108.86,-140.99 108.86,-140.99"/>
<polygon fill="black" stroke="black" points="105.36,-140.99 108.86,-150.99 112.36,-140.99 105.36,-140.99"/>
</g>
<!-- TemplatePlaygroundComponent -->
<g id="node4" class="node">
<title>TemplatePlaygroundComponent</title>
<polygon fill="#ffffb3" stroke="black" points="1058.25,-122 859.75,-122 859.75,-86 1058.25,-86 1058.25,-122"/>
<text text-anchor="middle" x="959" y="-99.8" font-family="Times,serif" font-size="14.00">TemplatePlaygroundComponent</text>
</g>
<!-- TemplatePlaygroundModule -->
<g id="node5" class="node">
<title>TemplatePlaygroundModule</title>
<polygon fill="#8dd3c7" stroke="black" points="740.47,-187 737.47,-191 716.47,-191 713.47,-187 563.53,-187 563.53,-151 740.47,-151 740.47,-187"/>
<text text-anchor="middle" x="652" y="-164.8" font-family="Times,serif" font-size="14.00">TemplatePlaygroundModule</text>
</g>
<!-- TemplatePlaygroundComponent&#45;&gt;TemplatePlaygroundModule -->
<g id="edge3" class="edge">
<title>TemplatePlaygroundComponent&#45;&gt;TemplatePlaygroundModule</title>
<path fill="none" stroke="black" d="M959,-122.11C959,-141.34 959,-169 959,-169 959,-169 750.8,-169 750.8,-169"/>
<polygon fill="black" stroke="black" points="750.8,-165.5 740.8,-169 750.8,-172.5 750.8,-165.5"/>
</g>
<!-- TemplatePlaygroundComponent  -->
<g id="node6" class="node">
<title>TemplatePlaygroundComponent </title>
<polygon fill="#80b1d3" stroke="black" points="753.25,-252 550.75,-252 550.75,-216 753.25,-216 753.25,-252"/>
<text text-anchor="middle" x="652" y="-229.8" font-family="Times,serif" font-size="14.00">TemplatePlaygroundComponent </text>
</g>
<!-- TemplatePlaygroundModule&#45;&gt;TemplatePlaygroundComponent  -->
<g id="edge4" class="edge">
<title>TemplatePlaygroundModule&#45;&gt;TemplatePlaygroundComponent </title>
<path fill="none" stroke="black" stroke-dasharray="1,5" d="M652,-187.11C652,-187.11 652,-205.99 652,-205.99"/>
<polygon fill="black" stroke="black" points="648.5,-205.99 652,-215.99 655.5,-205.99 648.5,-205.99"/>
</g>
<!-- HbsRenderService -->
<g id="node7" class="node">
<title>HbsRenderService</title>
<ellipse fill="#fdb462" stroke="black" cx="753" cy="-104" rx="83.37" ry="18"/>
<text text-anchor="middle" x="753" y="-99.8" font-family="Times,serif" font-size="14.00">HbsRenderService</text>
</g>
<!-- HbsRenderService&#45;&gt;TemplatePlaygroundModule -->
<g id="edge5" class="edge">
<title>HbsRenderService&#45;&gt;TemplatePlaygroundModule</title>
<path fill="none" stroke="black" d="M705.03,-118.75C705.03,-118.75 705.03,-140.59 705.03,-140.59"/>
<polygon fill="black" stroke="black" points="701.53,-140.59 705.03,-150.59 708.53,-140.59 701.53,-140.59"/>
</g>
<!-- TemplateEditorService -->
<g id="node8" class="node">
<title>TemplateEditorService</title>
<ellipse fill="#fdb462" stroke="black" cx="551" cy="-104" rx="100.7" ry="18"/>
<text text-anchor="middle" x="551" y="-99.8" font-family="Times,serif" font-size="14.00">TemplateEditorService</text>
</g>
<!-- TemplateEditorService&#45;&gt;TemplatePlaygroundModule -->
<g id="edge6" class="edge">
<title>TemplateEditorService&#45;&gt;TemplatePlaygroundModule</title>
<path fill="none" stroke="black" d="M607.56,-119.08C607.56,-119.08 607.56,-140.76 607.56,-140.76"/>
<polygon fill="black" stroke="black" points="604.06,-140.76 607.56,-150.76 611.06,-140.76 604.06,-140.76"/>
</g>
<!-- ZipExportService -->
<g id="node9" class="node">
<title>ZipExportService</title>
<ellipse fill="#fdb462" stroke="black" cx="353" cy="-104" rx="79.87" ry="18"/>
<text text-anchor="middle" x="353" y="-99.8" font-family="Times,serif" font-size="14.00">ZipExportService</text>
</g>
<!-- ZipExportService&#45;&gt;TemplatePlaygroundModule -->
<g id="edge7" class="edge">
<title>ZipExportService&#45;&gt;TemplatePlaygroundModule</title>
<path fill="none" stroke="black" d="M353,-122.11C353,-141.34 353,-169 353,-169 353,-169 553.5,-169 553.5,-169"/>
<polygon fill="black" stroke="black" points="553.5,-172.5 563.5,-169 553.5,-165.5 553.5,-172.5"/>
</g>
</g>
</svg>
